HIERARCHY
ROOT joint_Root
{
	OFFSET 0.0 0.0 0.0
	CHANNELS 6 Xposition Yposition Zposition Zrotation Xrotation Yrotation 
	JOINT Hips
	{
		OFFSET -17.1583 93.1646 452.98
		CHANNELS 6 Xposition Yposition Zposition Zrotation Xrotation Yrotation 
		JOINT Spine
		{
			OFFSET 15.7357 0.0 0.0
			CHANNELS 6 Xposition Yposition Zposition Zrotation Xrotation Yrotation 
			JOINT Chest
			{
				OFFSET 8.98455 -0.406207 0.0
				CHANNELS 6 Xposition Yposition Zposition Zrotation Xrotation Yrotation 
				JOINT Neck
				{
					OFFSET 16.3773 0.0 0.0
					CHANNELS 6 Xposition Yposition Zposition Zrotation Xrotation Yrotation 
					JOINT Head
					{
						OFFSET 6.45672 0.0 0.0
						CHANNELS 6 Xposition Yposition Zposition Zrotation Xrotation Yrotation 
						End Site
						{
							OFFSET 0.0 0.0 0.0
						}
					}
				}
				JOINT Shoulder_L
				{
					OFFSET 12.9942 -0.242716 4.98039
					CHANNELS 6 Xposition Yposition Zposition Zrotation Xrotation Yrotation 
					JOINT UpperArm_L
					{
						OFFSET 5.34809 0.0 0.0
						CHANNELS 6 Xposition Yposition Zposition Zrotation Xrotation Yrotation 
						JOINT LowerArm_L
						{
							OFFSET 24.3286 1.87007e-05 0.0
							CHANNELS 6 Xposition Yposition Zposition Zrotation Xrotation Yrotation 
							JOINT Hand_L
							{
								OFFSET 22.2916 0.0 0.0
								CHANNELS 6 Xposition Yposition Zposition Zrotation Xrotation Yrotation 
								End Site
								{
									OFFSET 0.0 0.0 0.0
								}
							}
						}
					}
				}
				JOINT Shoulder_R
				{
					OFFSET 12.9945 -0.242716 -4.98039
					CHANNELS 6 Xposition Yposition Zposition Zrotation Xrotation Yrotation 
					JOINT UpperArm_R
					{
						OFFSET -5.34813 0.0 0.0
						CHANNELS 6 Xposition Yposition Zposition Zrotation Xrotation Yrotation 
						JOINT LowerArm_R
						{
							OFFSET -24.3289 0.000322201 0.0
							CHANNELS 6 Xposition Yposition Zposition Zrotation Xrotation Yrotation 
							JOINT Hand_R
							{
								OFFSET -22.2915 -0.000108084 0.0
								CHANNELS 6 Xposition Yposition Zposition Zrotation Xrotation Yrotation 
								End Site
								{
									OFFSET 0.0 0.0 0.0
								}
							}
						}
					}
				}
			}
		}
		JOINT UpperLeg_L
		{
			OFFSET -2.19248 -6.46944 0.0
			CHANNELS 6 Xposition Yposition Zposition Zrotation Xrotation Yrotation 
			JOINT LowerLeg_L
			{
				OFFSET 39.0811 0.0 -1.23785e-05
				CHANNELS 6 Xposition Yposition Zposition Zrotation Xrotation Yrotation 
				JOINT Foot_L
				{
					OFFSET 40.9854 0.0 -1.26872e-05
					CHANNELS 6 Xposition Yposition Zposition Zrotation Xrotation Yrotation 
					JOINT Toes_L
					{
						OFFSET 11.7543 0.0 0.0
						CHANNELS 6 Xposition Yposition Zposition Zrotation Xrotation Yrotation 
						End Site
						{
							OFFSET 0.0 0.0 0.0
						}
					}
				}
			}
		}
		JOINT UpperLeg_R
		{
			OFFSET -2.19251 6.46944 0.0
			CHANNELS 6 Xposition Yposition Zposition Zrotation Xrotation Yrotation 
			JOINT LowerLeg_R
			{
				OFFSET -39.0811 -0.00228153 -0.0401928
				CHANNELS 6 Xposition Yposition Zposition Zrotation Xrotation Yrotation 
				JOINT Foot_R
				{
					OFFSET -40.9854 0.0 0.0
					CHANNELS 6 Xposition Yposition Zposition Zrotation Xrotation Yrotation 
					JOINT Toes_R
					{
						OFFSET -11.7543 0.0 0.0
						CHANNELS 6 Xposition Yposition Zposition Zrotation Xrotation Yrotation 
						End Site
						{
							OFFSET 0.0 0.0 0.0
						}
					}
				}
			}
		}
	}
}
MOTION
Frames:	8
Frame Time:	0.0333333
0.000000 0.000000 0.000000 0.000000 0.000000 -0.000000 1.479740 93.190800 0.355691 88.145200 -1.654090 0.473203 15.735700 0.000005 -0.000001 74.566000 86.432300 -66.799000 8.984550 -0.406207 -0.000000 -0.673028 -2.468050 15.514700 16.377300 -0.000001 -0.000001 -0.056391 1.250130 9.694830 6.456720 -0.000001 -0.000000 -13.885700 -2.346160 19.429900 12.994200 -0.242716 4.980390 -88.935800 -2.193170 -64.107900 5.348090 -0.000007 -0.000001 -51.987000 -55.131000 -84.081000 24.328600 0.000019 0.000005 0.001295 -8.033700 0.000001 22.291600 -0.000001 0.000005 24.835300 3.586520 29.798100 12.994500 -0.242716 -4.980390 89.552900 1.141040 -68.603200 -5.348130 -0.000001 -0.000004 -67.208300 2.283280 -8.160610 -24.328900 0.000322 -0.000009 0.493593 1.674950 -16.454200 -22.291500 -0.000108 -0.000004 7.457730 5.238750 1.728320 -2.192480 -6.469440 -0.000000 -174.875000 -13.323600 -0.755947 39.081100 -0.000007 -0.000012 0.024000 -0.086481 15.510700 40.985400 -0.000006 -0.000013 1.377360 15.504300 -69.266800 11.754300 -0.000000 0.000003 -0.000899 0.181589 -9.210750 -2.192510 6.469440 -0.000001 175.495000 8.362250 -178.089000 -39.081100 -0.002282 -0.040193 -0.005863 0.058421 8.953030 -40.985400 0.000008 0.000006 -8.158800 9.910110 -64.453800 -11.754300 -0.000006 -0.000006 -0.010793 0.277135 -5.312470
0.000000 0.000000 0.000000 0.000000 0.000000 -0.000000 1.406510 93.191200 0.381135 88.185000 -1.289590 0.513007 15.735700 0.000005 -0.000001 74.770000 86.471600 -67.099900 8.984550 -0.406207 -0.000000 -0.748457 -2.420960 15.319900 16.377300 -0.000001 -0.000001 -0.091237 1.187980 9.329940 6.456720 -0.000001 -0.000000 -13.529700 -2.411650 19.127400 12.994200 -0.242716 4.980390 -89.033600 -1.998570 -64.186500 5.348090 -0.000007 -0.000001 -61.217300 -55.219300 -92.756800 24.328600 0.000019 0.000005 0.000422 -21.070200 0.000001 22.291600 -0.000001 0.000005 34.859200 3.396610 32.234200 12.994500 -0.242716 -4.980390 89.611000 0.991369 -68.575800 -5.348130 -0.000001 -0.000004 -67.370100 2.676030 -7.718730 -24.328900 0.000322 -0.000009 0.633167 2.317690 -15.309600 -22.291500 -0.000108 -0.000004 6.901170 5.236300 1.792130 -2.192480 -6.469440 -0.000000 -174.866000 -12.941200 -0.718670 39.081100 -0.000007 -0.000012 0.023620 -0.085509 15.441900 40.985400 -0.000006 -0.000013 1.312490 15.504500 -69.215700 11.754300 -0.000000 0.000003 -0.000761 0.179574 -9.292650 -2.192510 6.469440 -0.000001 175.509000 8.583870 -177.995000 -39.081100 -0.002282 -0.040193 -0.005562 0.056181 9.004580 -40.985400 0.000008 0.000006 -8.016850 9.787640 -64.604500 -11.754300 -0.000006 -0.000006 -0.011018 0.278761 -5.245930
0.000000 0.000000 0.000000 0.000000 0.000000 -0.000000 1.335180 93.204200 0.390440 88.198000 -0.923805 0.504954 15.735700 0.000005 -0.000001 74.037500 86.531300 -66.474300 8.984550 -0.406207 -0.000000 -0.887607 -2.476310 15.103300 16.377300 -0.000001 -0.000001 0.151443 1.409600 8.674400 6.456720 -0.000001 -0.000000 -13.262600 -2.278090 18.760000 12.994200 -0.242716 4.980390 -88.964000 -2.134150 -64.099100 5.348090 -0.000007 -0.000001 -67.543500 -54.780600 -100.283000 24.328600 0.000019 0.000005 -0.000046 -28.555800 0.000000 22.291600 -0.000001 0.000005 44.078900 3.289020 33.592700 12.994500 -0.242716 -4.980390 89.645500 0.899640 -68.494800 -5.348130 -0.000001 -0.000004 -67.369600 2.712970 -7.547880 -24.328900 0.000322 -0.000009 0.714834 2.887200 -13.934300 -22.291500 -0.000108 -0.000004 6.884330 5.224530 2.096430 -2.192480 -6.469440 -0.000000 -174.825000 -12.740400 -0.712388 39.081100 -0.000007 -0.000012 0.022621 -0.082595 15.316700 40.985400 -0.000006 -0.000013 1.264000 15.669600 -69.164800 11.754300 -0.000000 0.000003 -0.000958 0.182442 -9.176090 -2.192510 6.469440 -0.000001 175.527000 8.723100 -177.865000 -39.081100 -0.002282 -0.040193 -0.005514 0.056852 8.852490 -40.985400 0.000008 0.000006 -8.300570 9.620310 -64.507200 -11.754300 -0.000006 -0.000006 -0.011022 0.278788 -5.244800
0.000000 0.000000 0.000000 0.000000 0.000000 -0.000000 1.256240 93.209500 0.393984 88.165300 -0.597767 0.479630 15.735700 0.000005 -0.000001 73.412300 86.591800 -65.958000 8.984550 -0.406207 -0.000000 -1.025930 -2.515310 14.882600 16.377300 -0.000001 -0.000001 0.575693 1.774560 8.035990 6.456720 -0.000001 -0.000000 -13.095400 -2.016230 18.279100 12.994200 -0.242716 4.980390 -88.836500 -2.375750 -63.898300 5.348090 -0.000007 -0.000001 -69.939400 -54.293800 -105.478000 24.328600 0.000019 0.000005 0.000587 -28.200700 0.000000 22.291600 -0.000001 0.000005 46.421000 3.331700 33.068300 12.994500 -0.242716 -4.980390 89.666100 0.847070 -68.483100 -5.348130 -0.000001 -0.000004 -67.336700 2.049990 -7.391050 -24.328900 0.000322 -0.000009 0.731886 3.241500 -12.748900 -22.291500 -0.000108 -0.000004 7.514830 5.218690 2.246490 -2.192480 -6.469440 -0.000000 -174.769000 -12.446800 -0.785870 39.081100 -0.000007 -0.000012 0.024027 -0.087645 15.330800 40.985400 -0.000006 -0.000013 1.212210 15.647400 -69.208100 11.754300 -0.000000 0.000003 -0.001025 0.183393 -9.137470 -2.192510 6.469440 -0.000001 175.612000 8.834380 -177.788000 -39.081100 -0.002282 -0.040193 -0.005011 0.054425 8.724090 -40.985400 0.000008 0.000006 -8.417580 9.429940 -64.394700 -11.754300 -0.000006 -0.000006 -0.010884 0.277795 -5.285470
0.000000 0.000000 0.000000 0.000000 0.000000 -0.000000 1.186670 93.221200 0.404054 88.098600 -0.301557 0.478746 15.735700 0.000005 -0.000001 73.423600 86.646300 -66.092100 8.984550 -0.406207 -0.000000 -1.136410 -2.480690 14.635300 16.377300 -0.000001 -0.000001 0.994488 2.069520 7.612030 6.456720 -0.000001 -0.000000 -12.896900 -1.720990 17.805900 12.994200 -0.242716 4.980390 -88.733300 -2.559180 -63.655600 5.348090 -0.000007 -0.000001 -67.956300 -54.302500 -107.737000 24.328600 0.000019 0.000005 0.001604 -23.929100 0.000000 22.291600 -0.000001 0.000005 44.774600 3.517870 30.713200 12.994500 -0.242716 -4.980390 89.684200 0.798143 -68.410700 -5.348130 -0.000001 -0.000004 -67.244200 1.377090 -7.207270 -24.328900 0.000322 -0.000009 0.741041 3.488570 -12.016800 -22.291500 -0.000108 -0.000004 8.426190 5.208620 2.502080 -2.192480 -6.469440 -0.000000 -174.657000 -12.048200 -0.824991 39.081100 -0.000007 -0.000012 0.022480 -0.082288 15.280000 40.985400 -0.000006 -0.000013 1.136630 15.630000 -69.089700 11.754300 -0.000000 0.000003 -0.000973 0.182657 -9.167370 -2.192510 6.469440 -0.000001 175.675000 9.207640 -177.590000 -39.081100 -0.002282 -0.040193 -0.005037 0.056584 8.422610 -40.985400 0.000008 0.000006 -8.731840 9.498870 -64.124400 -11.754300 -0.000006 -0.000006 -0.010679 0.276314 -5.346050
0.000000 0.000000 0.000000 0.000000 0.000000 -0.000000 1.131380 93.218200 0.428664 88.068900 0.030840 0.636777 15.735700 0.000005 -0.000001 73.758300 86.629500 -66.576400 8.984550 -0.406207 -0.000000 -1.100650 -2.438760 14.337300 16.377300 -0.000001 -0.000001 1.231750 2.235980 7.229680 6.456720 -0.000001 -0.000000 -12.557300 -1.673000 17.560700 12.994200 -0.242716 4.980390 -88.638000 -2.734750 -63.511600 5.348090 -0.000007 -0.000001 -64.958000 -54.872700 -109.288000 24.328600 0.000019 0.000005 -0.389413 -17.828200 -1.281850 22.291600 -0.000001 0.000005 43.735300 3.719610 28.079800 12.994500 -0.242716 -4.980390 89.693700 0.771763 -68.354900 -5.348130 -0.000001 -0.000004 -67.102500 0.755051 -7.043860 -24.328900 0.000322 -0.000009 0.748918 3.648880 -11.622600 -22.291500 -0.000108 -0.000004 8.997000 5.213400 2.380680 -2.192480 -6.469440 -0.000000 -174.595000 -11.555400 -0.725455 39.081100 -0.000007 -0.000012 0.024618 -0.089692 15.348200 40.985400 -0.000006 -0.000013 1.082400 15.439500 -69.178000 11.754300 -0.000000 0.000003 -0.000992 0.182917 -9.156790 -2.192510 6.469440 -0.000001 175.656000 9.695320 -177.325000 -39.081100 -0.002282 -0.040193 -0.005342 0.059012 8.371270 -40.985400 0.000008 0.000006 -8.849300 9.740900 -64.085500 -11.754300 -0.000006 -0.000006 -0.010849 0.277545 -5.295690
0.000000 0.000000 0.000000 0.000000 0.000000 -0.000000 1.085110 93.207200 0.429259 88.001500 0.286809 0.712702 15.735700 0.000005 -0.000001 73.764200 86.614100 -66.708900 8.984550 -0.406207 -0.000000 -1.075110 -2.435460 14.084500 16.377300 -0.000001 -0.000001 1.564260 2.365110 6.846920 6.456720 -0.000001 -0.000000 -12.469600 -1.878920 17.508900 12.994200 -0.242716 4.980390 -88.567300 -2.851460 -63.307700 5.348090 -0.000007 -0.000001 -63.072800 -55.649200 -111.275000 24.328600 0.000019 0.000005 -1.055880 -10.468400 -5.814960 22.291600 -0.000001 0.000005 43.183600 3.886080 25.818300 12.994500 -0.242716 -4.980390 89.669900 0.829296 -68.293600 -5.348130 -0.000001 -0.000004 -66.817700 0.439057 -6.968100 -24.328900 0.000322 -0.000009 0.754494 3.649360 -11.705300 -22.291500 -0.000108 -0.000004 9.207100 5.208950 2.493800 -2.192480 -6.469440 -0.000000 -174.507000 -11.189000 -0.823378 39.081100 -0.000007 -0.000012 0.024695 -0.088682 15.561000 40.985400 -0.000006 -0.000013 1.061610 15.344800 -69.180500 11.754300 -0.000000 0.000003 -0.001035 0.183527 -9.132010 -2.192510 6.469440 -0.000001 175.723000 10.071800 -177.226000 -39.081100 -0.002282 -0.040193 -0.005541 0.060020 8.417780 -40.985400 0.000008 0.000006 -8.841850 9.825900 -64.048400 -11.754300 -0.000006 -0.000006 -0.010579 0.275583 -5.375970
0.000000 0.000000 0.000000 0.000000 0.000000 -0.000000 1.066190 93.214000 0.426118 87.981700 0.504385 0.728832 15.735700 0.000005 -0.000001 73.514600 86.587500 -66.587400 8.984550 -0.406207 -0.000000 -1.034630 -2.466610 13.828800 16.377300 -0.000001 -0.000001 1.819260 2.540740 6.506610 6.456720 -0.000001 -0.000000 -12.613200 -1.988980 17.651100 12.994200 -0.242716 4.980390 -88.530400 -2.907840 -63.172900 5.348090 -0.000007 -0.000001 -61.867600 -56.659400 -113.284000 24.328600 0.000019 0.000005 -0.462747 -2.458180 -10.762900 22.291600 -0.000001 0.000005 42.719100 4.093730 22.880000 12.994500 -0.242716 -4.980390 89.582100 1.047060 -68.239000 -5.348130 -0.000001 -0.000004 -66.359400 0.556318 -7.008350 -24.328900 0.000322 -0.000009 0.761277 3.569740 -12.062800 -22.291500 -0.000108 -0.000004 9.174610 5.209480 2.480410 -2.192480 -6.469440 -0.000000 -174.489000 -10.875100 -0.829617 39.081100 -0.000007 -0.000012 0.024688 -0.088818 15.533700 40.985400 -0.000006 -0.000013 1.033390 15.282700 -69.174100 11.754300 -0.000000 0.000003 -0.000985 0.182815 -9.160940 -2.192510 6.469440 -0.000001 175.723000 10.225100 -177.097000 -39.081100 -0.002282 -0.040193 -0.005770 0.062848 8.249300 -40.985400 0.000008 0.000006 -9.057230 9.799360 -63.941700 -11.754300 -0.000006 -0.000006 -0.010724 0.276641 -5.332710
